<?xml version="1.0" encoding="utf-8"?>
<!-- Generator: Adobe Illustrator 21.1.0, SVG Export Plug-In . SVG Version: 6.00 Build 0)  -->
<svg version="1.1" id="圖層_1" xmlns="http://www.w3.org/2000/svg" xmlns:xlink="http://www.w3.org/1999/xlink" x="0px" y="0px"
	 viewBox="0 0 600 600" style="enable-background:new 0 0 600 600;" xml:space="preserve">
<style type="text/css">
	.st0{fill:#00C200;}
	.st1{fill:#00C500;}
</style>
<g>
	<path class="st0" d="M300,0C134.3,0,0,134.3,0,300s134.3,300,300,300s300-134.3,300-300S465.7,0,300,0z M520.8,275.7
		c-0.2,3.5-0.7,8-1.7,13.4c-2.7,17-8.5,33.3-16.9,48.4c-4,7.1-23.3,34.3-29.3,41.4c-32.7,39.3-87.4,84.8-178.8,128.9
		c-8.5,4.1-18.3-2.7-17.2-12.1l4.6-41.5c0.7-6.6-4-12.6-10.7-13.3C162.6,429.6,79,355.9,79,266.7C79,169.6,177.9,91,299.9,91
		c118.6,0,215.3,74.3,220.7,167.6C520.8,261.2,521.2,269.9,520.8,275.7z"/>
	<path class="st1" d="M212.4,302.3h-33.9v-74c0-6.2-5.1-11.3-11.3-11.3s-11.3,5.1-11.3,11.3v85.3c0,6.2,5.1,11.3,11.3,11.3h45.2
		c6.2,0,11.3-5.1,11.3-11.3C223.7,307.3,218.6,302.3,212.4,302.3z"/>
	<path class="st1" d="M248.2,217h-4.9c-4.9,0-8.8,4-8.8,8.8v90.3c0,4.9,4,8.8,8.8,8.8h4.9c4.9,0,8.8-4,8.8-8.8v-90.3
		C257,220.9,253,217,248.2,217z"/>
	<path class="st1" d="M350.8,217c-6.2,0-11.3,5.1-11.3,11.3v52.1c0,0-45.1-58.9-45.8-59.6c-2.2-2.4-5.3-3.9-8.9-3.8
		c-6.1,0.2-10.9,5.6-10.9,11.8v84.9c0,6.2,5.1,11.3,11.3,11.3c6.2,0,11.3-5.1,11.3-11.3v-51.8c0,0,45.8,59.4,46.5,60
		c2,1.9,4.7,3.1,7.6,3.1c6.3,0.1,11.4-5.5,11.4-11.8v-84.8C362.1,222,357,217,350.8,217z"/>
	<path class="st1" d="M435.5,239.6c6.2,0,11.3-5.1,11.3-11.3c0-6.2-5.1-11.3-11.3-11.3h-45.2c-6.2,0-11.3,5.1-11.3,11.3v85.3
		c0,6.2,5.1,11.3,11.3,11.3h45.2c6.2,0,11.3-5.1,11.3-11.3c0-6.2-5.1-11.3-11.3-11.3h-33.9v-20.1h33.9c6.2,0,11.3-5.1,11.3-11.3
		c0-6.2-5.1-11.3-11.3-11.3h-33.9v-20.1H435.5z"/>
</g>
</svg>
