<svg id="圖層_1" data-name="圖層 1" xmlns="http://www.w3.org/2000/svg" viewBox="0 0 600 600"><defs><style>.cls-1{fill:#5c6bc0;}</style></defs><title>socail_discord</title><path class="cls-1" d="M359.65,140l-1,.35L359,140ZM138.43,176.76c53.14-38.67,102.4-36.82,102.4-36.82l4,3.91c-65,15.51-94.51,44.56-94.51,44.56,3-.64,134.31-76.39,293.41,1.91,0,0-29.54-27.16-90.57-44.56l5.39-5.31c8.44,0,53.08,1.59,100.86,36.53,0,0,53.46,91.32,53.46,203.51-1.77-2.15-33.17,48.3-114,50,0,0-13.68-15.48-23.42-29,47.25-13.57,64.94-40.7,64.94-40.7-92,57.92-172.61,48.88-269.06,9.74a2.23,2.23,0,0,1-1.77-.87v-.17a2.32,2.32,0,0,0-1.77-.87h-1.74a97.94,97.94,0,0,0-9.86-5.8s17.66,27.14,63,40.7c-11.92,13.6-23.71,29-23.71,29-80.77-1.91-110.22-52.36-110.22-52.36,0-112.37,53.14-203.51,53.14-203.51ZM300,0C134.31,0,0,134.31,0,300S134.31,600,300,600,600,465.69,600,300,465.69,0,300,0Z"/><path class="cls-1" d="M364.87,345.45c20.61,0,37.4-17.39,37.4-38.85s-16.7-38.7-37.4-38.7V268c-20.53,0-37.34,17.34-37.4,38.79C327.48,328.06,344.26,345.45,364.87,345.45Z"/><path class="cls-1" d="M231,345.45c20.61,0,37.4-17.39,37.4-38.85s-16.67-38.7-37.28-38.7L231,268c-20.61,0-37.4,17.34-37.4,38.79C193.6,328.06,210.38,345.45,231,345.45Z"/></svg>