<?xml version="1.0" encoding="utf-8"?>
<!-- Generator: Adobe Illustrator 21.1.0, SVG Export Plug-In . SVG Version: 6.00 Build 0)  -->
<svg version="1.1" id="圖層_1" xmlns="http://www.w3.org/2000/svg" xmlns:xlink="http://www.w3.org/1999/xlink" x="0px" y="0px"
	 viewBox="0 0 600 600" style="enable-background:new 0 0 600 600;" xml:space="preserve">
<style type="text/css">
	.st0{fill:#CE1312;}
</style>
<g>
	<path class="st0" d="M300,0C134.3,0,0,134.3,0,300s134.3,300,300,300s300-134.3,300-300S465.7,0,300,0z M456,145.1l-92.8,295.5
		c-0.5,1.5-1.6,2.7-3,3.4c-1.5,0.6-3.1,0.6-4.5-0.1l-65.8-31.4l-53.2,61.7c-1.1,1.2-2.6,1.9-4.1,1.9c-0.6,0-1.1-0.1-1.7-0.3
		c-2.1-0.7-3.6-2.6-3.7-4.8l-7.6-99.2c-0.1-1.6,0.4-3.1,1.5-4.2l76.5-78.7L200,361.7c-1.6,1.2-3.8,1.4-5.7,0.5L94.1,313
		c-1.9-0.9-3.1-2.9-3.1-5c0-2.1,1.3-4,3.2-4.9l354.3-164.6c2-0.9,4.3-0.6,5.9,0.8C456,140.8,456.6,143,456,145.1z"/>
</g>
</svg>
