<svg id="圖層_1" data-name="圖層 1" xmlns="http://www.w3.org/2000/svg" viewBox="0 0 600 600"><defs><style>.cls-1{fill:#f9a01b;}</style></defs><title>socail_phone</title><path class="cls-1" d="M300,0C134.31,0,0,134.31,0,300S134.31,600,300,600,600,465.69,600,300,465.69,0,300,0Zm2.82,179.66a138.21,138.21,0,0,1,116.91,113.4l-30.79,5.26a106.82,106.82,0,0,0-90.45-87.7Zm149.62,276c-9,9.1-18.61,17.77-27.12,27.29-12.43,13.94-28,18.44-45.81,17.44-26-1.42-49.82-10-72.85-21.2-51.15-24.87-94.88-59.33-131.51-102.89C148,344.13,125.66,309,111,269.45c-7.18-19.11-12.27-38.72-10.68-59.5,1-12.77,5.76-23.7,15.19-32.63,10.18-9.68,19.78-19.78,29.79-29.62,13-12.85,29.37-12.85,42.47-.08,8.09,7.93,16,16,24,24,7.76,7.84,15.52,15.52,23.28,23.36,13.68,13.77,13.68,29.79.08,43.47-9.76,9.85-19.44,19.69-29.37,29.29-2.59,2.59-2.84,4.67-1.5,7.84,6.59,15.69,16,29.62,26.62,42.64,21.36,26.2,45.48,49.48,74.27,67.59,6.17,3.84,13,6.68,19.44,10.18,3.25,1.84,5.51,1.25,8.18-1.5,9.76-10,19.69-19.86,29.62-29.71,13-12.93,29.37-12.93,42.47,0q23.91,23.78,47.73,47.65C465.87,425.83,465.79,442.18,452.43,455.7ZM470.21,293A198.11,198.11,0,0,0,302.57,130.51l4.34-31A229.51,229.51,0,0,1,501,287.72Z"/></svg>