<svg id="圖層_1" data-name="圖層 1" xmlns="http://www.w3.org/2000/svg" viewBox="0 0 600 600"><defs><style>.cls-1{fill:#2196f3;}</style></defs><title>socail_messenger</title><path class="cls-1" d="M300,0C134.31,0,0,134.31,0,300S134.31,600,300,600,600,465.69,600,300,465.69,0,300,0Zm.11,509a235.42,235.42,0,0,1-84.57-15.53l-53,33.1A9.51,9.51,0,0,1,148,518.54V453.13A214.53,214.53,0,0,1,71.94,290.38C74.76,167.07,176.8,69.29,300.11,71.72c123.31-2.43,225.35,95.36,228.17,218.66C525.46,413.68,423.42,511.47,300.11,509Z"/><path class="cls-1" d="M450.32,227.63A9.51,9.51,0,0,0,438.15,225l-98.87,53.9-61.51-52.74a9.51,9.51,0,0,0-12.91.49L150.78,340.71a9.51,9.51,0,0,0,11.28,15.06l98.87-53.9,61.57,52.76a9.51,9.51,0,0,0,12.91-.49L449.48,240A9.51,9.51,0,0,0,450.32,227.63Z"/></svg>